<?xml version="1.0" standalone="no"?>
<!DOCTYPE svg PUBLIC "-//W3C//DTD SVG 20010904//EN"
 "http://www.w3.org/TR/2001/REC-SVG-20010904/DTD/svg10.dtd">
<svg version="1.0" xmlns="http://www.w3.org/2000/svg"
 width="512.000000pt" height="512.000000pt" viewBox="0 0 512.000000 512.000000"
 preserveAspectRatio="xMidYMid meet">

<g transform="translate(0.000000,512.000000) scale(0.100000,-0.100000)"
fill="#000000" stroke="none">
<path d="M3515 5101 c-22 -10 -77 -56 -122 -103 l-83 -83 803 -803 802 -802
87 87 c119 120 141 180 98 267 -28 58 -1391 1419 -1442 1441 -49 20 -94 19
-143 -4z"/>
<path d="M3170 4775 l-85 -85 803 -803 802 -802 85 85 85 85 -803 803 -802
802 -85 -85z"/>
<path d="M2558 4163 c-312 -313 -469 -477 -473 -495 -4 -16 -4 -40 -1 -55 8
-33 293 -323 317 -323 9 0 28 9 42 20 40 31 92 50 140 50 85 0 122 -30 439
-347 316 -317 338 -345 338 -433 0 -48 -26 -116 -53 -139 -36 -29 -20 -53 131
-204 161 -161 187 -176 248 -144 16 9 236 223 489 476 l460 461 -800 800
c-440 440 -802 800 -805 800 -3 0 -215 -210 -472 -467z m996 -488 c92 -45 147
-134 148 -239 0 -110 -52 -195 -149 -243 -168 -82 -360 21 -388 209 -15 102
48 220 145 271 49 26 63 28 130 25 47 -2 90 -11 114 -23z"/>
<path d="M3345 3601 c-154 -94 -126 -308 46 -351 60 -15 116 0 166 43 44 38
63 82 63 141 0 79 -40 144 -107 172 -47 20 -132 18 -168 -5z"/>
<path d="M2045 2491 c-471 -469 -703 -694 -730 -706 -22 -11 -71 -21 -108 -23
-82 -5 -136 13 -207 69 -81 64 -132 74 -205 40 -27 -13 -164 -143 -406 -387
-291 -292 -369 -377 -379 -408 -16 -49 -7 -128 19 -169 11 -18 213 -224 448
-459 362 -361 434 -428 468 -437 58 -16 104 -13 150 8 49 23 769 742 784 784
24 64 10 128 -41 185 -51 59 -78 128 -78 202 0 128 -24 100 735 860 l685 685
-223 222 -222 223 -690 -689z m-941 -1289 c83 -45 129 -123 129 -222 1 -54 -4
-74 -28 -119 -115 -210 -413 -168 -475 67 -25 97 26 213 119 269 29 17 65 34
80 36 50 9 126 -5 175 -31z"/>
</g>
</svg>
